{
    "asset" : {
        "generator" : "Khronos glTF Blender I/O v1.6.16",
        "version" : "2.0"
    },
    "extensionsUsed" : [
        "KHR_texture_transform"
    ],
    "extensionsRequired" : [
        "KHR_texture_transform"
    ],
    "scene" : 0,
    "scenes" : [
        {
            "extras" : {
                "texToolsSettings" : {
                    "size_dropdown" : 4,
                    "size" : [
                        512,
                        512
                    ],
                    "padding" : 4
                },
                "jiggle_rate" : 1,
                "NWBusyDrawing" : "",
                "NWLazySource" : "XYZ\u5408\u6210.006",
                "NWLazyTarget" : "XYZ\u5408\u6210.006",
                "glTF2ExportSettings" : {
                    "export_animations" : 1,
                    "export_cameras" : 0,
                    "export_colors" : 1,
                    "export_extras" : 1,
                    "export_force_sampling" : 0,
                    "export_format" : "GLTF_SEPARATE",
                    "export_image_format" : "AUTO",
                    "export_lights" : 0,
                    "export_morph" : 1,
                    "export_normals" : 1,
                    "export_skins" : 1,
                    "export_texcoords" : 1,
                    "export_texture_dir" : "",
                    "export_yup" : 1,
                    "use_selection" : 1
                }
            },
            "name" : "Scene",
            "nodes" : [
                0,
                1,
                2
            ]
        }
    ],
    "nodes" : [
        {
            "extras" : {
                "currentUVSet" : "map1"
            },
            "mesh" : 0,
            "name" : "Sign_S_1.5_.042",
            "rotation" : [
                0,
                -1,
                0,
                7.549790126404332e-08
            ],
            "scale" : [
                1.1123970746994019,
                1.1123970746994019,
                1.1123970746994019
            ],
            "translation" : [
                -0.02100372314453125,
                2.0127694606781006,
                -0.027399685233831406
            ]
        },
        {
            "extras" : {
                "currentUVSet" : "map1"
            },
            "mesh" : 1,
            "name" : "Sign_S_1.5_.043",
            "rotation" : [
                0,
                -1,
                0,
                7.549790126404332e-08
            ],
            "scale" : [
                1.1123970746994019,
                1.1123970746994019,
                1.1123970746994019
            ],
            "translation" : [
                -0.018220901489257812,
                1.6772964000701904,
                -0.027399715036153793
            ]
        },
        {
            "extras" : {
                "currentUVSet" : "map1"
            },
            "mesh" : 2,
            "name" : "PoleA_50.8_2800mm_A_.064",
            "rotation" : [
                0,
                -1,
                0,
                7.549790126404332e-08
            ],
            "scale" : [
                0.6766188740730286,
                0.6766188740730286,
                0.4026333689689636
            ],
            "translation" : [
                -0.01926422119140625,
                0.21948027610778809,
                -0.013070773333311081
            ]
        }
    ],
    "materials" : [
        {
            "doubleSided" : true,
            "name" : "M_S1.5_BackSide.043",
            "normalTexture" : {
                "index" : 0
            },
            "pbrMetallicRoughness" : {
                "baseColorTexture" : {
                    "extensions" : {
                        "KHR_texture_transform" : {
                            "offset" : [
                                -3.1999998092651367,
                                2.799999713897705
                            ]
                        }
                    },
                    "index" : 1
                },
                "metallicFactor" : 0.699999988079071,
                "roughnessFactor" : 0.5
            }
        },
        {
            "doubleSided" : true,
            "emissiveFactor" : [
                0.4000000059604645,
                0.4000000059604645,
                0.4000000059604645
            ],
            "emissiveTexture" : {
                "index" : 2
            },
            "name" : "M_S_Sign.044",
            "pbrMetallicRoughness" : {
                "baseColorTexture" : {
                    "index" : 3
                },
                "metallicFactor" : 0.699999988079071,
                "metallicRoughnessTexture" : {
                    "index" : 4
                }
            }
        },
        {
            "doubleSided" : true,
            "name" : "M_S1.5_BackSide.044",
            "normalTexture" : {
                "index" : 5
            },
            "pbrMetallicRoughness" : {
                "baseColorTexture" : {
                    "extensions" : {
                        "KHR_texture_transform" : {
                            "offset" : [
                                -3.1999998092651367,
                                2.799999713897705
                            ]
                        }
                    },
                    "index" : 6
                },
                "metallicFactor" : 0.7092885375022888,
                "roughnessFactor" : 0.7318181395530701
            }
        },
        {
            "doubleSided" : true,
            "emissiveFactor" : [
                0.4000000059604645,
                0.4000000059604645,
                0.4000000059604645
            ],
            "emissiveTexture" : {
                "index" : 7
            },
            "name" : "M_S_Sign.045",
            "pbrMetallicRoughness" : {
                "baseColorTexture" : {
                    "index" : 8
                },
                "metallicFactor" : 0.699999988079071,
                "metallicRoughnessTexture" : {
                    "index" : 9
                }
            }
        },
        {
            "doubleSided" : true,
            "name" : "M_PoleA.008",
            "normalTexture" : {
                "index" : 10,
                "scale" : 0
            },
            "pbrMetallicRoughness" : {
                "baseColorTexture" : {
                    "index" : 11
                },
                "metallicRoughnessTexture" : {
                    "index" : 12
                }
            }
        }
    ],
    "meshes" : [
        {
            "name" : "\u30e1\u30c3\u30b7\u30e5.759",
            "primitives" : [
                {
                    "attributes" : {
                        "POSITION" : 0,
                        "NORMAL" : 1,
                        "TEXCOORD_0" : 2
                    },
                    "indices" : 3,
                    "material" : 0
                },
                {
                    "attributes" : {
                        "POSITION" : 4,
                        "NORMAL" : 5,
                        "TEXCOORD_0" : 6
                    },
                    "indices" : 7,
                    "material" : 1
                }
            ]
        },
        {
            "name" : "\u30e1\u30c3\u30b7\u30e5.760",
            "primitives" : [
                {
                    "attributes" : {
                        "POSITION" : 8,
                        "NORMAL" : 9,
                        "TEXCOORD_0" : 10
                    },
                    "indices" : 3,
                    "material" : 2
                },
                {
                    "attributes" : {
                        "POSITION" : 11,
                        "NORMAL" : 12,
                        "TEXCOORD_0" : 13
                    },
                    "indices" : 7,
                    "material" : 3
                }
            ]
        },
        {
            "name" : "\u30e1\u30c3\u30b7\u30e5.761",
            "primitives" : [
                {
                    "attributes" : {
                        "POSITION" : 14,
                        "NORMAL" : 15,
                        "TEXCOORD_0" : 16
                    },
                    "indices" : 17,
                    "material" : 4
                }
            ]
        }
    ],
    "textures" : [
        {
            "sampler" : 0,
            "source" : 0
        },
        {
            "sampler" : 0,
            "source" : 1
        },
        {
            "sampler" : 0,
            "source" : 2
        },
        {
            "sampler" : 0,
            "source" : 2
        },
        {
            "sampler" : 0,
            "source" : 3
        },
        {
            "sampler" : 0,
            "source" : 0
        },
        {
            "sampler" : 0,
            "source" : 1
        },
        {
            "sampler" : 0,
            "source" : 4
        },
        {
            "sampler" : 0,
            "source" : 4
        },
        {
            "sampler" : 0,
            "source" : 3
        },
        {
            "sampler" : 0,
            "source" : 5
        },
        {
            "sampler" : 0,
            "source" : 6
        },
        {
            "sampler" : 0,
            "source" : 7
        }
    ],
    "images" : [
        {
            "mimeType" : "image/png",
            "name" : "M_S1.5_BackSide_Default_Normal",
            "uri" : "M_S1_5_BackSide_Default_Normal.png"
        },
        {
            "mimeType" : "image/png",
            "name" : "RainGrunge_Musk",
            "uri" : "RainGrunge_Musk.png"
        },
        {
            "mimeType" : "image/png",
            "name" : "time_rivers",
            "uri" : "time_rivers.png"
        },
        {
            "mimeType" : "image/png",
            "name" : "SignReflectSheet_Roughness",
            "uri" : "SignReflectSheet_Roughness.png"
        },
        {
            "mimeType" : "image/png",
            "name" : "under_us",
            "uri" : "under_us.png"
        },
        {
            "mimeType" : "image/jpeg",
            "name" : "Metal011_2K_NormalGL",
            "uri" : "Metal011_2K_NormalGL.jpg"
        },
        {
            "mimeType" : "image/jpeg",
            "name" : "Metal011_2K_Color",
            "uri" : "Metal011_2K_Color.jpg"
        },
        {
            "mimeType" : "image/png",
            "name" : "Metal011_2K_Metalness-Metal011_2K_Roughness",
            "uri" : "Metal011_2K_Metalness-Metal011_2K_Roughness.png"
        }
    ],
    "accessors" : [
        {
            "bufferView" : 0,
            "componentType" : 5126,
            "count" : 156,
            "max" : [
                0.44999951124191284,
                0.12450886517763138,
                -0.00025818118592724204
            ],
            "min" : [
                -0.44999951124191284,
                -0.1199653148651123,
                -0.02329220250248909
            ],
            "type" : "VEC3"
        },
        {
            "bufferView" : 1,
            "componentType" : 5126,
            "count" : 156,
            "type" : "VEC3"
        },
        {
            "bufferView" : 2,
            "componentType" : 5126,
            "count" : 156,
            "type" : "VEC2"
        },
        {
            "bufferView" : 3,
            "componentType" : 5123,
            "count" : 336,
            "type" : "SCALAR"
        },
        {
            "bufferView" : 4,
            "componentType" : 5126,
            "count" : 16,
            "max" : [
                0.44999951124191284,
                0.12450886517763138,
                -0.023292163386940956
            ],
            "min" : [
                -0.44999951124191284,
                -0.11996530741453171,
                -0.02329220250248909
            ],
            "type" : "VEC3"
        },
        {
            "bufferView" : 5,
            "componentType" : 5126,
            "count" : 16,
            "type" : "VEC3"
        },
        {
            "bufferView" : 6,
            "componentType" : 5126,
            "count" : 16,
            "type" : "VEC2"
        },
        {
            "bufferView" : 7,
            "componentType" : 5123,
            "count" : 42,
            "type" : "SCALAR"
        },
        {
            "bufferView" : 8,
            "componentType" : 5126,
            "count" : 156,
            "max" : [
                0.44999951124191284,
                0.12450886517763138,
                -0.00025818118592724204
            ],
            "min" : [
                -0.44999951124191284,
                -0.1199653148651123,
                -0.02329220250248909
            ],
            "type" : "VEC3"
        },
        {
            "bufferView" : 9,
            "componentType" : 5126,
            "count" : 156,
            "type" : "VEC3"
        },
        {
            "bufferView" : 10,
            "componentType" : 5126,
            "count" : 156,
            "type" : "VEC2"
        },
        {
            "bufferView" : 11,
            "componentType" : 5126,
            "count" : 16,
            "max" : [
                0.44999951124191284,
                0.12450886517763138,
                -0.023292163386940956
            ],
            "min" : [
                -0.44999951124191284,
                -0.11996530741453171,
                -0.02329220250248909
            ],
            "type" : "VEC3"
        },
        {
            "bufferView" : 12,
            "componentType" : 5126,
            "count" : 16,
            "type" : "VEC3"
        },
        {
            "bufferView" : 13,
            "componentType" : 5126,
            "count" : 16,
            "type" : "VEC2"
        },
        {
            "bufferView" : 14,
            "componentType" : 5126,
            "count" : 51,
            "max" : [
                0.025399446487426758,
                2.7998647689819336,
                0.025400448590517044
            ],
            "min" : [
                -0.02539956569671631,
                -0.29815199971199036,
                -0.02540004812180996
            ],
            "type" : "VEC3"
        },
        {
            "bufferView" : 15,
            "componentType" : 5126,
            "count" : 51,
            "type" : "VEC3"
        },
        {
            "bufferView" : 16,
            "componentType" : 5126,
            "count" : 51,
            "type" : "VEC2"
        },
        {
            "bufferView" : 17,
            "componentType" : 5123,
            "count" : 174,
            "type" : "SCALAR"
        }
    ],
    "bufferViews" : [
        {
            "buffer" : 0,
            "byteLength" : 1872,
            "byteOffset" : 0
        },
        {
            "buffer" : 0,
            "byteLength" : 1872,
            "byteOffset" : 1872
        },
        {
            "buffer" : 0,
            "byteLength" : 1248,
            "byteOffset" : 3744
        },
        {
            "buffer" : 0,
            "byteLength" : 672,
            "byteOffset" : 4992
        },
        {
            "buffer" : 0,
            "byteLength" : 192,
            "byteOffset" : 5664
        },
        {
            "buffer" : 0,
            "byteLength" : 192,
            "byteOffset" : 5856
        },
        {
            "buffer" : 0,
            "byteLength" : 128,
            "byteOffset" : 6048
        },
        {
            "buffer" : 0,
            "byteLength" : 84,
            "byteOffset" : 6176
        },
        {
            "buffer" : 0,
            "byteLength" : 1872,
            "byteOffset" : 6260
        },
        {
            "buffer" : 0,
            "byteLength" : 1872,
            "byteOffset" : 8132
        },
        {
            "buffer" : 0,
            "byteLength" : 1248,
            "byteOffset" : 10004
        },
        {
            "buffer" : 0,
            "byteLength" : 192,
            "byteOffset" : 11252
        },
        {
            "buffer" : 0,
            "byteLength" : 192,
            "byteOffset" : 11444
        },
        {
            "buffer" : 0,
            "byteLength" : 128,
            "byteOffset" : 11636
        },
        {
            "buffer" : 0,
            "byteLength" : 612,
            "byteOffset" : 11764
        },
        {
            "buffer" : 0,
            "byteLength" : 612,
            "byteOffset" : 12376
        },
        {
            "buffer" : 0,
            "byteLength" : 408,
            "byteOffset" : 12988
        },
        {
            "buffer" : 0,
            "byteLength" : 348,
            "byteOffset" : 13396
        }
    ],
    "samplers" : [
        {
            "magFilter" : 9729,
            "minFilter" : 9987
        }
    ],
    "buffers" : [
        {
            "byteLength" : 13744,
            "uri" : "time-rivers.bin"
        }
    ]
}
