{
    "asset" : {
        "generator" : "Khronos glTF Blender I/O v1.6.16",
        "version" : "2.0"
    },
    "extensionsUsed" : [
        "KHR_texture_transform"
    ],
    "extensionsRequired" : [
        "KHR_texture_transform"
    ],
    "scene" : 0,
    "scenes" : [
        {
            "extras" : {
                "texToolsSettings" : {
                    "size_dropdown" : 4,
                    "size" : [
                        512,
                        512
                    ],
                    "padding" : 4
                },
                "jiggle_rate" : 1,
                "NWBusyDrawing" : "",
                "NWLazySource" : "XYZ\u5408\u6210.006",
                "NWLazyTarget" : "XYZ\u5408\u6210.006",
                "glTF2ExportSettings" : {
                    "export_animations" : 1,
                    "export_cameras" : 0,
                    "export_colors" : 1,
                    "export_extras" : 1,
                    "export_force_sampling" : 0,
                    "export_format" : "GLTF_SEPARATE",
                    "export_image_format" : "AUTO",
                    "export_lights" : 0,
                    "export_morph" : 1,
                    "export_normals" : 1,
                    "export_skins" : 1,
                    "export_texcoords" : 1,
                    "export_texture_dir" : "",
                    "export_yup" : 1,
                    "use_selection" : 1
                }
            },
            "name" : "Scene",
            "nodes" : [
                0,
                1,
                2,
                3
            ]
        }
    ],
    "nodes" : [
        {
            "extras" : {
                "currentUVSet" : "map1"
            },
            "mesh" : 0,
            "name" : "Sign_S_1.5_.015",
            "rotation" : [
                0,
                -1,
                0,
                7.549790126404332e-08
            ],
            "scale" : [
                1.8446787595748901,
                1.8446787595748901,
                1.8446787595748901
            ],
            "translation" : [
                -0.010298728942871094,
                1.9817662239074707,
                -0.017346860840916634
            ]
        },
        {
            "extras" : {
                "currentUVSet" : "map1"
            },
            "mesh" : 1,
            "name" : "PoleA_50.8_2800mm_A_.028",
            "rotation" : [
                0,
                -1,
                0,
                7.549790126404332e-08
            ],
            "scale" : [
                0.6766189932823181,
                0.6766188740730286,
                0.6766189932823181
            ],
            "translation" : [
                -0.010808944702148438,
                0.18669843673706055,
                -0.013070261105895042
            ]
        },
        {
            "extras" : {
                "currentUVSet" : "map1"
            },
            "mesh" : 2,
            "name" : "PoleA_50.8_2800mm_A_.029",
            "rotation" : [
                0,
                -1,
                0,
                7.549790126404332e-08
            ],
            "scale" : [
                0.6766188740730286,
                0.6766188740730286,
                0.4026333689689636
            ],
            "translation" : [
                -0.010808944702148438,
                0.18669843673706055,
                -0.013070261105895042
            ]
        },
        {
            "extras" : {
                "currentUVSet" : "map1"
            },
            "mesh" : 3,
            "name" : "Sign_S_1.5_.016",
            "rotation" : [
                0,
                -1,
                0,
                7.549790126404332e-08
            ],
            "scale" : [
                1.8446787595748901,
                1.8446787595748901,
                1.8446787595748901
            ],
            "translation" : [
                -0.010298728942871094,
                1.9817662239074707,
                -0.017346860840916634
            ]
        }
    ],
    "materials" : [
        {
            "doubleSided" : true,
            "name" : "M_S1.5_BackSide.009",
            "normalTexture" : {
                "index" : 0
            },
            "pbrMetallicRoughness" : {
                "baseColorTexture" : {
                    "extensions" : {
                        "KHR_texture_transform" : {
                            "offset" : [
                                -3.1999998092651367,
                                2.799999713897705
                            ]
                        }
                    },
                    "index" : 1
                },
                "metallicFactor" : 0.7092885375022888,
                "roughnessFactor" : 0.7318181395530701
            }
        },
        {
            "doubleSided" : true,
            "emissiveFactor" : [
                0.4000000059604645,
                0.4000000059604645,
                0.4000000059604645
            ],
            "emissiveTexture" : {
                "index" : 2
            },
            "name" : "M_S_Sign.010",
            "pbrMetallicRoughness" : {
                "baseColorTexture" : {
                    "index" : 3
                },
                "metallicFactor" : 0.6499999761581421,
                "metallicRoughnessTexture" : {
                    "index" : 4
                }
            }
        },
        {
            "doubleSided" : true,
            "name" : "M_PoleA.008",
            "normalTexture" : {
                "index" : 5,
                "scale" : 0
            },
            "pbrMetallicRoughness" : {
                "baseColorTexture" : {
                    "index" : 6
                },
                "metallicRoughnessTexture" : {
                    "index" : 7
                }
            }
        },
        {
            "doubleSided" : true,
            "name" : "M_PoleA.025",
            "normalTexture" : {
                "index" : 8,
                "scale" : 0
            },
            "pbrMetallicRoughness" : {
                "baseColorTexture" : {
                    "index" : 9
                },
                "metallicRoughnessTexture" : {
                    "index" : 10
                }
            }
        },
        {
            "doubleSided" : true,
            "name" : "M_S1.5_BackSide.014",
            "normalTexture" : {
                "index" : 11
            },
            "pbrMetallicRoughness" : {
                "baseColorTexture" : {
                    "extensions" : {
                        "KHR_texture_transform" : {
                            "offset" : [
                                -3.1999998092651367,
                                2.799999713897705
                            ]
                        }
                    },
                    "index" : 12
                },
                "metallicFactor" : 0.7092885375022888,
                "roughnessFactor" : 0.7318181395530701
            }
        },
        {
            "doubleSided" : true,
            "emissiveFactor" : [
                0.4000000059604645,
                0.4000000059604645,
                0.4000000059604645
            ],
            "emissiveTexture" : {
                "index" : 13
            },
            "name" : "M_S_Sign.015",
            "pbrMetallicRoughness" : {
                "baseColorTexture" : {
                    "index" : 14
                },
                "metallicFactor" : 0.6499999761581421,
                "metallicRoughnessTexture" : {
                    "index" : 15
                }
            }
        }
    ],
    "meshes" : [
        {
            "name" : "\u30e1\u30c3\u30b7\u30e5.678",
            "primitives" : [
                {
                    "attributes" : {
                        "POSITION" : 0,
                        "NORMAL" : 1,
                        "TEXCOORD_0" : 2
                    },
                    "indices" : 3,
                    "material" : 0
                },
                {
                    "attributes" : {
                        "POSITION" : 4,
                        "NORMAL" : 5,
                        "TEXCOORD_0" : 6
                    },
                    "indices" : 7,
                    "material" : 1
                }
            ]
        },
        {
            "name" : "\u30e1\u30c3\u30b7\u30e5.682",
            "primitives" : [
                {
                    "attributes" : {
                        "POSITION" : 8,
                        "NORMAL" : 9,
                        "TEXCOORD_0" : 10
                    },
                    "indices" : 11,
                    "material" : 2
                }
            ]
        },
        {
            "name" : "\u30e1\u30c3\u30b7\u30e5.704",
            "primitives" : [
                {
                    "attributes" : {
                        "POSITION" : 12,
                        "NORMAL" : 13,
                        "TEXCOORD_0" : 14
                    },
                    "indices" : 11,
                    "material" : 3
                }
            ]
        },
        {
            "name" : "\u30e1\u30c3\u30b7\u30e5.681",
            "primitives" : [
                {
                    "attributes" : {
                        "POSITION" : 15,
                        "NORMAL" : 16,
                        "TEXCOORD_0" : 17
                    },
                    "indices" : 3,
                    "material" : 4
                },
                {
                    "attributes" : {
                        "POSITION" : 18,
                        "NORMAL" : 19,
                        "TEXCOORD_0" : 20
                    },
                    "indices" : 7,
                    "material" : 5
                }
            ]
        }
    ],
    "textures" : [
        {
            "sampler" : 0,
            "source" : 0
        },
        {
            "sampler" : 0,
            "source" : 1
        },
        {
            "sampler" : 0,
            "source" : 2
        },
        {
            "sampler" : 0,
            "source" : 2
        },
        {
            "sampler" : 0,
            "source" : 3
        },
        {
            "sampler" : 0,
            "source" : 4
        },
        {
            "sampler" : 0,
            "source" : 5
        },
        {
            "sampler" : 0,
            "source" : 6
        },
        {
            "sampler" : 0,
            "source" : 4
        },
        {
            "sampler" : 0,
            "source" : 5
        },
        {
            "sampler" : 0,
            "source" : 7
        },
        {
            "sampler" : 0,
            "source" : 0
        },
        {
            "sampler" : 0,
            "source" : 1
        },
        {
            "sampler" : 0,
            "source" : 2
        },
        {
            "sampler" : 0,
            "source" : 2
        },
        {
            "sampler" : 0,
            "source" : 3
        }
    ],
    "images" : [
        {
            "mimeType" : "image/png",
            "name" : "M_S1.5_BackSide_Default_Normal",
            "uri" : "M_S1_5_BackSide_Default_Normal.png"
        },
        {
            "mimeType" : "image/png",
            "name" : "RainGrunge_Musk",
            "uri" : "RainGrunge_Musk.png"
        },
        {
            "mimeType" : "image/png",
            "name" : "BEES2",
            "uri" : "BEES2.png"
        },
        {
            "mimeType" : "image/png",
            "name" : "SignReflectSheet_Roughness",
            "uri" : "SignReflectSheet_Roughness.png"
        },
        {
            "mimeType" : "image/jpeg",
            "name" : "Metal011_2K_NormalGL",
            "uri" : "Metal011_2K_NormalGL.jpg"
        },
        {
            "mimeType" : "image/jpeg",
            "name" : "Metal011_2K_Color",
            "uri" : "Metal011_2K_Color.jpg"
        },
        {
            "mimeType" : "image/png",
            "name" : "Metal011_2K_Metalness-Metal011_2K_Roughness",
            "uri" : "Metal011_2K_Metalness-Metal011_2K_Roughness.png"
        },
        {
            "mimeType" : "image/png",
            "name" : "Metal011_2K_Metalness.jpg-Metal011_2K_Roughness.jpg",
            "uri" : "Metal011_2K_Metalness_jpg-Metal011_2K_Roughness_jpg.png"
        }
    ],
    "accessors" : [
        {
            "bufferView" : 0,
            "componentType" : 5126,
            "count" : 156,
            "max" : [
                0.44999951124191284,
                0.12450886517763138,
                -0.00025818118592724204
            ],
            "min" : [
                -0.44999951124191284,
                -0.1199653148651123,
                -0.02329220250248909
            ],
            "type" : "VEC3"
        },
        {
            "bufferView" : 1,
            "componentType" : 5126,
            "count" : 156,
            "type" : "VEC3"
        },
        {
            "bufferView" : 2,
            "componentType" : 5126,
            "count" : 156,
            "type" : "VEC2"
        },
        {
            "bufferView" : 3,
            "componentType" : 5123,
            "count" : 336,
            "type" : "SCALAR"
        },
        {
            "bufferView" : 4,
            "componentType" : 5126,
            "count" : 16,
            "max" : [
                0.44999951124191284,
                0.12450886517763138,
                -0.023292163386940956
            ],
            "min" : [
                -0.44999951124191284,
                -0.11996530741453171,
                -0.02329220250248909
            ],
            "type" : "VEC3"
        },
        {
            "bufferView" : 5,
            "componentType" : 5126,
            "count" : 16,
            "type" : "VEC3"
        },
        {
            "bufferView" : 6,
            "componentType" : 5126,
            "count" : 16,
            "type" : "VEC2"
        },
        {
            "bufferView" : 7,
            "componentType" : 5123,
            "count" : 42,
            "type" : "SCALAR"
        },
        {
            "bufferView" : 8,
            "componentType" : 5126,
            "count" : 51,
            "max" : [
                0.025399446487426758,
                2.7998647689819336,
                0.025400448590517044
            ],
            "min" : [
                -0.02539956569671631,
                -0.29815199971199036,
                -0.02540004812180996
            ],
            "type" : "VEC3"
        },
        {
            "bufferView" : 9,
            "componentType" : 5126,
            "count" : 51,
            "type" : "VEC3"
        },
        {
            "bufferView" : 10,
            "componentType" : 5126,
            "count" : 51,
            "type" : "VEC2"
        },
        {
            "bufferView" : 11,
            "componentType" : 5123,
            "count" : 174,
            "type" : "SCALAR"
        },
        {
            "bufferView" : 12,
            "componentType" : 5126,
            "count" : 51,
            "max" : [
                0.025399446487426758,
                2.7998647689819336,
                0.025400448590517044
            ],
            "min" : [
                -0.02539956569671631,
                -0.29815199971199036,
                -0.02540004812180996
            ],
            "type" : "VEC3"
        },
        {
            "bufferView" : 13,
            "componentType" : 5126,
            "count" : 51,
            "type" : "VEC3"
        },
        {
            "bufferView" : 14,
            "componentType" : 5126,
            "count" : 51,
            "type" : "VEC2"
        },
        {
            "bufferView" : 15,
            "componentType" : 5126,
            "count" : 156,
            "max" : [
                0.44999951124191284,
                0.12450886517763138,
                -0.00025818118592724204
            ],
            "min" : [
                -0.44999951124191284,
                -0.1199653148651123,
                -0.02329220250248909
            ],
            "type" : "VEC3"
        },
        {
            "bufferView" : 16,
            "componentType" : 5126,
            "count" : 156,
            "type" : "VEC3"
        },
        {
            "bufferView" : 17,
            "componentType" : 5126,
            "count" : 156,
            "type" : "VEC2"
        },
        {
            "bufferView" : 18,
            "componentType" : 5126,
            "count" : 16,
            "max" : [
                0.44999951124191284,
                0.12450886517763138,
                -0.023292163386940956
            ],
            "min" : [
                -0.44999951124191284,
                -0.11996530741453171,
                -0.02329220250248909
            ],
            "type" : "VEC3"
        },
        {
            "bufferView" : 19,
            "componentType" : 5126,
            "count" : 16,
            "type" : "VEC3"
        },
        {
            "bufferView" : 20,
            "componentType" : 5126,
            "count" : 16,
            "type" : "VEC2"
        }
    ],
    "bufferViews" : [
        {
            "buffer" : 0,
            "byteLength" : 1872,
            "byteOffset" : 0
        },
        {
            "buffer" : 0,
            "byteLength" : 1872,
            "byteOffset" : 1872
        },
        {
            "buffer" : 0,
            "byteLength" : 1248,
            "byteOffset" : 3744
        },
        {
            "buffer" : 0,
            "byteLength" : 672,
            "byteOffset" : 4992
        },
        {
            "buffer" : 0,
            "byteLength" : 192,
            "byteOffset" : 5664
        },
        {
            "buffer" : 0,
            "byteLength" : 192,
            "byteOffset" : 5856
        },
        {
            "buffer" : 0,
            "byteLength" : 128,
            "byteOffset" : 6048
        },
        {
            "buffer" : 0,
            "byteLength" : 84,
            "byteOffset" : 6176
        },
        {
            "buffer" : 0,
            "byteLength" : 612,
            "byteOffset" : 6260
        },
        {
            "buffer" : 0,
            "byteLength" : 612,
            "byteOffset" : 6872
        },
        {
            "buffer" : 0,
            "byteLength" : 408,
            "byteOffset" : 7484
        },
        {
            "buffer" : 0,
            "byteLength" : 348,
            "byteOffset" : 7892
        },
        {
            "buffer" : 0,
            "byteLength" : 612,
            "byteOffset" : 8240
        },
        {
            "buffer" : 0,
            "byteLength" : 612,
            "byteOffset" : 8852
        },
        {
            "buffer" : 0,
            "byteLength" : 408,
            "byteOffset" : 9464
        },
        {
            "buffer" : 0,
            "byteLength" : 1872,
            "byteOffset" : 9872
        },
        {
            "buffer" : 0,
            "byteLength" : 1872,
            "byteOffset" : 11744
        },
        {
            "buffer" : 0,
            "byteLength" : 1248,
            "byteOffset" : 13616
        },
        {
            "buffer" : 0,
            "byteLength" : 192,
            "byteOffset" : 14864
        },
        {
            "buffer" : 0,
            "byteLength" : 192,
            "byteOffset" : 15056
        },
        {
            "buffer" : 0,
            "byteLength" : 128,
            "byteOffset" : 15248
        }
    ],
    "samplers" : [
        {
            "magFilter" : 9729,
            "minFilter" : 9987
        }
    ],
    "buffers" : [
        {
            "byteLength" : 15376,
            "uri" : "bees.bin"
        }
    ]
}
